<svg xmlns="http://www.w3.org/2000/svg" viewBox="0 0 100 100">
  <defs>
    <linearGradient id="boot-grad-nepal" x1="0%" y1="0%" x2="0%" y2="100%">
      <stop offset="0%" stop-color="#FFFFFF"/>
      <stop offset="100%" stop-color="#E8B0BB"/>
    </linearGradient>
  </defs>
  <path d="M 15 60 L 15 75 Q 15 85 25 85 L 75 85 Q 85 85 85 75 L 85 55 Q 85 45 75 45 L 65 45 Q 60 30 45 25 L 35 25 Q 25 30 20 45 L 15 45 Q 10 45 10 55 Z" fill="url(#boot-grad-nepal)" stroke="#0A0E1A" stroke-width="2"/>
  <path d="M 25 60 Q 50 50 75 60" stroke="#DC143C" stroke-width="2.5" fill="none"/>
  <circle cx="20" cy="85" r="2" fill="#0A0E1A"/><circle cx="35" cy="85" r="2" fill="#0A0E1A"/>
  <circle cx="50" cy="85" r="2" fill="#0A0E1A"/><circle cx="65" cy="85" r="2" fill="#0A0E1A"/>
  <circle cx="80" cy="85" r="2" fill="#0A0E1A"/>
</svg>