<svg xmlns="http://www.w3.org/2000/svg" viewBox="0 0 1200 400" preserveAspectRatio="xMidYMid slice">
  <defs>
    <linearGradient id="cov-bg" x1="0%" y1="0%" x2="100%" y2="100%">
      <stop offset="0%" stop-color="#0A0E1A"/>
      <stop offset="50%" stop-color="#152D45"/>
      <stop offset="100%" stop-color="#0A0E1A"/>
    </linearGradient>
  </defs>
  <rect width="1200" height="400" fill="url(#cov-bg)"/>
  <g opacity="0.1">
    <line x1="-200" y1="0" x2="0" y2="400" stroke="#75AADB" stroke-width="1"/>
    <line x1="-100" y1="0" x2="100" y2="400" stroke="#75AADB" stroke-width="1"/>
    <line x1="0" y1="0" x2="200" y2="400" stroke="#75AADB" stroke-width="1"/>
    <line x1="100" y1="0" x2="300" y2="400" stroke="#75AADB" stroke-width="1"/>
    <line x1="200" y1="0" x2="400" y2="400" stroke="#75AADB" stroke-width="1"/>
    <line x1="300" y1="0" x2="500" y2="400" stroke="#75AADB" stroke-width="1"/>
    <line x1="400" y1="0" x2="600" y2="400" stroke="#75AADB" stroke-width="1"/>
    <line x1="500" y1="0" x2="700" y2="400" stroke="#75AADB" stroke-width="1"/>
    <line x1="600" y1="0" x2="800" y2="400" stroke="#75AADB" stroke-width="1"/>
    <line x1="700" y1="0" x2="900" y2="400" stroke="#75AADB" stroke-width="1"/>
    <line x1="800" y1="0" x2="1000" y2="400" stroke="#75AADB" stroke-width="1"/>
    <line x1="900" y1="0" x2="1100" y2="400" stroke="#75AADB" stroke-width="1"/>
    <line x1="1000" y1="0" x2="1200" y2="400" stroke="#75AADB" stroke-width="1"/>
  </g>
  <text x="600" y="240" font-family="Anton, Impact, sans-serif" font-size="280" font-weight="400" fill="#75AADB" text-anchor="middle" opacity="0.15" letter-spacing="-10">NP</text>
  <!-- Sun of May -->
  <g transform="translate(1080 80)">
    <circle r="40" fill="#F6B40E" opacity="0.6"/>
  </g>
</svg>
