<svg xmlns="http://www.w3.org/2000/svg" viewBox="0 0 1200 630">
  <defs>
    <linearGradient id="og-bg" x1="0%" y1="0%" x2="100%" y2="100%">
      <stop offset="0%" stop-color="#0A0E1A"/>
      <stop offset="100%" stop-color="#1A1E27"/>
    </linearGradient>
    <linearGradient id="og-celeste" x1="0%" y1="0%" x2="100%" y2="0%">
      <stop offset="0%" stop-color="#75AADB"/>
      <stop offset="100%" stop-color="#4A8FCC"/>
    </linearGradient>
  </defs>
  <!-- Background -->
  <rect width="1200" height="630" fill="url(#og-bg)"/>
  <!-- Grid pattern -->
  <g opacity="0.05">
    <line x1="0" y1="0" x2="0" y2="630" stroke="#75AADB" stroke-width="1"/><line x1="60" y1="0" x2="60" y2="630" stroke="#75AADB" stroke-width="1"/><line x1="120" y1="0" x2="120" y2="630" stroke="#75AADB" stroke-width="1"/><line x1="180" y1="0" x2="180" y2="630" stroke="#75AADB" stroke-width="1"/><line x1="240" y1="0" x2="240" y2="630" stroke="#75AADB" stroke-width="1"/><line x1="300" y1="0" x2="300" y2="630" stroke="#75AADB" stroke-width="1"/><line x1="360" y1="0" x2="360" y2="630" stroke="#75AADB" stroke-width="1"/><line x1="420" y1="0" x2="420" y2="630" stroke="#75AADB" stroke-width="1"/><line x1="480" y1="0" x2="480" y2="630" stroke="#75AADB" stroke-width="1"/><line x1="540" y1="0" x2="540" y2="630" stroke="#75AADB" stroke-width="1"/><line x1="600" y1="0" x2="600" y2="630" stroke="#75AADB" stroke-width="1"/><line x1="660" y1="0" x2="660" y2="630" stroke="#75AADB" stroke-width="1"/><line x1="720" y1="0" x2="720" y2="630" stroke="#75AADB" stroke-width="1"/><line x1="780" y1="0" x2="780" y2="630" stroke="#75AADB" stroke-width="1"/><line x1="840" y1="0" x2="840" y2="630" stroke="#75AADB" stroke-width="1"/><line x1="900" y1="0" x2="900" y2="630" stroke="#75AADB" stroke-width="1"/><line x1="960" y1="0" x2="960" y2="630" stroke="#75AADB" stroke-width="1"/><line x1="1020" y1="0" x2="1020" y2="630" stroke="#75AADB" stroke-width="1"/><line x1="1080" y1="0" x2="1080" y2="630" stroke="#75AADB" stroke-width="1"/><line x1="1140" y1="0" x2="1140" y2="630" stroke="#75AADB" stroke-width="1"/>
    <line x1="0" y1="0" x2="1200" y2="0" stroke="#75AADB" stroke-width="1"/><line x1="0" y1="60" x2="1200" y2="60" stroke="#75AADB" stroke-width="1"/><line x1="0" y1="120" x2="1200" y2="120" stroke="#75AADB" stroke-width="1"/><line x1="0" y1="180" x2="1200" y2="180" stroke="#75AADB" stroke-width="1"/><line x1="0" y1="240" x2="1200" y2="240" stroke="#75AADB" stroke-width="1"/><line x1="0" y1="300" x2="1200" y2="300" stroke="#75AADB" stroke-width="1"/><line x1="0" y1="360" x2="1200" y2="360" stroke="#75AADB" stroke-width="1"/><line x1="0" y1="420" x2="1200" y2="420" stroke="#75AADB" stroke-width="1"/><line x1="0" y1="480" x2="1200" y2="480" stroke="#75AADB" stroke-width="1"/><line x1="0" y1="540" x2="1200" y2="540" stroke="#75AADB" stroke-width="1"/><line x1="0" y1="600" x2="1200" y2="600" stroke="#75AADB" stroke-width="1"/>
  </g>
  <!-- Argentina stripe accent (left) -->
  <rect x="0" y="0" width="20" height="630" fill="url(#og-celeste)"/>
  <rect x="0" y="0" width="20" height="210" fill="#75AADB"/>
  <rect x="0" y="210" width="20" height="210" fill="#FFFFFF"/>
  <rect x="0" y="420" width="20" height="210" fill="#75AADB"/>
  <!-- Gold sun accent -->
  <circle cx="1080" cy="120" r="60" fill="#F6B40E" opacity="0.9"/>
  <circle cx="1080" cy="120" r="40" fill="none" stroke="#F6B40E" stroke-width="2" opacity="0.5"/>
  <!-- Title -->
  <text x="80" y="280" font-family="system-ui, sans-serif" font-size="160" font-weight="900" fill="#FFFFFF" letter-spacing="-6">NICO</text>
  <text x="80" y="430" font-family="system-ui, sans-serif" font-size="160" font-weight="900" fill="#75AADB" letter-spacing="-6">PAZ</text>
  <!-- Tagline -->
  <text x="80" y="490" font-family="system-ui, sans-serif" font-size="32" font-weight="500" fill="#75AADB" letter-spacing="4">N° 10 · ARGENTINA</text>
  <!-- Bottom info -->
  <text x="80" y="560" font-family="system-ui, sans-serif" font-size="24" font-weight="500" fill="#FFFFFF" opacity="0.6" letter-spacing="2">OFFICIAL · NICOPAZ.COM</text>
</svg>